<svg width="16" height="16" viewBox="0 0 16 16" fill="none" xmlns="http://www.w3.org/2000/svg">
  <!-- Feather quill -->
  <path d="M13 1C9 2 6.5 5 5 8C4 10 3.5 11.5 2 14C3.5 13 5.5 12 7 10.5C9 8.5 11 5.5 13 1Z" fill="#C5C5C5" fill-opacity="0.3" stroke="#C5C5C5" stroke-width="1" stroke-linejoin="round"/>
  <!-- Feather spine -->
  <path d="M13 1C8 6 5 10 2 14" stroke="#C5C5C5" stroke-width="1" stroke-linecap="round"/>
  <!-- Sparkle top-right -->
  <path d="M14.5 2L14.8 3L15.8 3.3L14.8 3.6L14.5 4.6L14.2 3.6L13.2 3.3L14.2 3L14.5 2Z" fill="#C5C5C5"/>
  <!-- Sparkle mid-right -->
  <path d="M12.5 5.5L12.75 6.25L13.5 6.5L12.75 6.75L12.5 7.5L12.25 6.75L11.5 6.5L12.25 6.25L12.5 5.5Z" fill="#C5C5C5"/>
  <!-- Sparkle small -->
  <path d="M10 3L10.2 3.6L10.8 3.8L10.2 4L10 4.6L9.8 4L9.2 3.8L9.8 3.6L10 3Z" fill="#C5C5C5"/>
</svg>
